<svg xmlns="http://www.w3.org/2000/svg" xmlns:xlink="http://www.w3.org/1999/xlink" width="1925" height="1085" viewBox="0 0 1925 1085">
  <defs>
    <clipPath id="clip-path">
      <rect id="Rectangle_36560" data-name="Rectangle 36560" width="1925" height="1085" transform="translate(-5 -5)" fill="#fff" stroke="#707070" stroke-width="1"/>
    </clipPath>
    <clipPath id="clip-path-2">
      <rect id="Rectangle_3211" data-name="Rectangle 3211" width="1925.261" height="1080" transform="translate(1925.261 1080) rotate(-180)" fill="none"/>
    </clipPath>
    <radialGradient id="radial-gradient" cx="0.725" cy="0.669" r="1.047" gradientUnits="objectBoundingBox">
      <stop offset="0" stop-color="#0058ad"/>
      <stop offset="0.004" stop-color="#393939"/>
      <stop offset="1"/>
    </radialGradient>
    <radialGradient id="radial-gradient-2" cx="0.5" cy="0.5" r="0.089" gradientUnits="objectBoundingBox">
      <stop offset="0.001" stop-color="aqua"/>
      <stop offset="0.103" stop-color="#00cfcf"/>
      <stop offset="0.235" stop-color="#099"/>
      <stop offset="0.368" stop-color="#006a6a"/>
      <stop offset="0.5" stop-color="#044"/>
      <stop offset="0.631" stop-color="#002626"/>
      <stop offset="0.758" stop-color="#011"/>
      <stop offset="0.883" stop-color="#000404"/>
      <stop offset="1"/>
    </radialGradient>
    <radialGradient id="radial-gradient-3" cx="0.5" cy="0.5" r="0.5" xlink:href="#radial-gradient-2"/>
    <radialGradient id="radial-gradient-5" cx="0.5" cy="0.5" r="0.089" xlink:href="#radial-gradient-2"/>
    <radialGradient id="radial-gradient-6" cx="0.5" cy="0.5" r="0.5" xlink:href="#radial-gradient-2"/>
    <radialGradient id="radial-gradient-9" cx="0.5" cy="0.5" r="0.5" xlink:href="#radial-gradient-2"/>
    <radialGradient id="radial-gradient-18" cx="0.5" cy="0.5" r="0.5" xlink:href="#radial-gradient-2"/>
  </defs>
  <g id="Mask_Group_42540" data-name="Mask Group 42540" transform="translate(5 5)" clip-path="url(#clip-path)">
    <g id="Group_6143" data-name="Group 6143" transform="translate(-220.459 -87.426)">
      <g id="Group_6134" data-name="Group 6134" transform="translate(215.458 87.426)">
        <g id="Group_6133" data-name="Group 6133" clip-path="url(#clip-path-2)">
          <g id="Group_6132" data-name="Group 6132" transform="translate(-944.678 -378.89)">
            <rect id="Rectangle_3208" data-name="Rectangle 3208" width="1925.261" height="1080" transform="translate(2869.938 1458.891) rotate(-180)" fill="url(#radial-gradient)"/>
            <g id="Group_6117" data-name="Group 6117" transform="translate(1194.202 337.242)" opacity="0.11">
              <path id="Path_11797" data-name="Path 11797" d="M692.422,367.921h74.734L804.522,303.2l-37.367-64.721H692.422L655.055,303.2Z" transform="translate(432.84 262.73)" fill="#fff" opacity="0.39"/>
              <path id="Path_11798" data-name="Path 11798" d="M652.691,344.508h74.734l37.367-64.721-37.367-64.721H652.691l-37.367,64.721Z" transform="translate(351.694 214.912)" fill="#fff" opacity="0.26"/>
              <path id="Path_11799" data-name="Path 11799" d="M612.959,367.921h74.733L725.06,303.2l-37.367-64.721H612.959L575.593,303.2Z" transform="translate(270.548 262.73)" fill="#fff" opacity="0.25" style="mix-blend-mode: screen;isolation: isolate"/>
              <path id="Path_11800" data-name="Path 11800" d="M573.228,344.508h74.733l37.367-64.721-37.367-64.721H573.228l-37.367,64.721Z" transform="translate(189.402 214.912)" fill="#fff" opacity="0.26"/>
              <path id="Path_11801" data-name="Path 11801" d="M573.228,391.334h74.733l37.367-64.721-37.367-64.721H573.228l-37.367,64.721Z" transform="translate(189.402 310.548)" fill="#fff" opacity="0.1" style="mix-blend-mode: screen;isolation: isolate"/>
              <path id="Path_11802" data-name="Path 11802" d="M533.5,367.921h74.734L645.6,303.2l-37.367-64.721H533.5L496.13,303.2Z" transform="translate(108.256 262.73)" fill="#fff" opacity="0.25" style="mix-blend-mode: screen;isolation: isolate"/>
              <path id="Path_11803" data-name="Path 11803" d="M454.035,367.921h74.734L566.135,303.2l-37.367-64.721H454.035L416.668,303.2Z" transform="translate(-54.036 262.73)" fill="#fff" opacity="0.25" style="mix-blend-mode: screen;isolation: isolate"/>
              <path id="Path_11804" data-name="Path 11804" d="M414.3,344.508h74.734L526.4,279.787l-37.367-64.721H414.3l-37.367,64.721Z" transform="translate(-135.182 214.912)" fill="#fff" opacity="0.26"/>
              <path id="Path_11805" data-name="Path 11805" d="M414.3,391.334h74.734L526.4,326.613l-37.367-64.721H414.3l-37.367,64.721Z" transform="translate(-135.182 310.548)" fill="#fff" opacity="0.1" style="mix-blend-mode: screen;isolation: isolate"/>
              <path id="Path_11806" data-name="Path 11806" d="M374.572,367.921h74.733L486.672,303.2l-37.367-64.721H374.572L337.206,303.2Z" transform="translate(-216.328 262.73)" fill="#fff" opacity="0.39"/>
              <path id="Path_11807" data-name="Path 11807" d="M334.841,344.508h74.734l37.367-64.721-37.367-64.721H334.841l-37.367,64.721Z" transform="translate(-297.474 214.912)" fill="#fff" opacity="0.25" style="mix-blend-mode: screen;isolation: isolate"/>
              <path id="Path_11808" data-name="Path 11808" d="M692.026,320.811H766.76l37.367-64.721L766.76,191.369H692.026L654.659,256.09Z" transform="translate(432.032 166.514)" fill="#fff" opacity="0.25" style="mix-blend-mode: screen;isolation: isolate"/>
              <path id="Path_11809" data-name="Path 11809" d="M612.564,320.811H687.3l37.367-64.721L687.3,191.369H612.564L575.2,256.09Z" transform="translate(269.74 166.514)" fill="#fff" opacity="0.26"/>
              <path id="Path_11810" data-name="Path 11810" d="M533.1,320.811h74.734L645.2,256.09l-37.367-64.721H533.1L495.735,256.09Z" transform="translate(107.448 166.514)" fill="#fff" opacity="0.26"/>
              <path id="Path_11811" data-name="Path 11811" d="M493.37,297.4H568.1l37.366-64.721L568.1,167.956H493.37L456,232.677Z" transform="translate(26.302 118.696)" fill="#fff" opacity="0.25" style="mix-blend-mode: screen;isolation: isolate"/>
              <path id="Path_11812" data-name="Path 11812" d="M413.908,297.4h74.734l37.367-64.721-37.367-64.721H413.908l-37.367,64.721Z" transform="translate(-135.99 118.696)" fill="#fff" opacity="0.1" style="mix-blend-mode: screen;isolation: isolate"/>
              <path id="Path_11813" data-name="Path 11813" d="M374.177,320.811h74.734l37.366-64.721-37.366-64.721H374.177L336.81,256.09Z" transform="translate(-217.136 166.514)" fill="#fff" opacity="0.25" style="mix-blend-mode: screen;isolation: isolate"/>
              <path id="Path_11814" data-name="Path 11814" d="M651.9,250.288h74.733L764,185.567l-37.367-64.721H651.9l-37.367,64.721Z" transform="translate(350.079 22.48)" fill="#fff" opacity="0.39"/>
              <path id="Path_11815" data-name="Path 11815" d="M612.168,273.7H686.9l37.367-64.721L686.9,144.259H612.168L574.8,208.98Z" transform="translate(268.933 70.298)" fill="#fff" opacity="0.25" style="mix-blend-mode: screen;isolation: isolate"/>
              <path id="Path_11816" data-name="Path 11816" d="M572.437,250.288h74.734l37.367-64.721-37.367-64.721H572.437L535.07,185.567Z" transform="translate(187.786 22.48)" fill="#fff" opacity="0.1" style="mix-blend-mode: screen;isolation: isolate"/>
              <path id="Path_11817" data-name="Path 11817" d="M532.706,273.7h74.733l37.367-64.721-37.367-64.721H532.706L495.339,208.98Z" transform="translate(106.64 70.298)" fill="#fff" opacity="0.39"/>
              <path id="Path_11818" data-name="Path 11818" d="M453.244,273.7h74.734l37.367-64.721-37.367-64.721H453.244L415.877,208.98Z" transform="translate(-55.652 70.298)" fill="#fff" opacity="0.26"/>
              <path id="Path_11819" data-name="Path 11819" d="M413.513,250.288h74.733l37.367-64.721-37.367-64.721H413.513l-37.367,64.721Z" transform="translate(-136.798 22.48)" fill="#fff" opacity="0.39"/>
              <path id="Path_11820" data-name="Path 11820" d="M532.311,226.592h74.734l37.367-64.721L607.044,97.149H532.311l-37.367,64.721Z" transform="translate(105.833 -25.918)" fill="#fff" opacity="0.26"/>
              <path id="Path_11821" data-name="Path 11821" d="M492.579,203.179h74.734l37.367-64.721L567.313,73.736H492.579l-37.367,64.721Z" transform="translate(24.687 -73.736)" fill="#fff" opacity="0.39" style="mix-blend-mode: multiply;isolation: isolate"/>
            </g>
            <g id="Group_6118" data-name="Group 6118" transform="translate(0 0)" opacity="0.26">
              <path id="Path_11822" data-name="Path 11822" d="M299.9,257.073h74.733L412,192.352l-37.367-64.721H299.9l-37.367,64.721Z" transform="translate(825.363 373.578)" fill="#bbbebe" opacity="0.39"/>
              <path id="Path_11823" data-name="Path 11823" d="M260.168,233.66H334.9l37.367-64.721L334.9,104.218H260.168L222.8,168.939Z" transform="translate(744.216 325.76)" fill="#bbbebe" opacity="0.26"/>
              <path id="Path_11824" data-name="Path 11824" d="M220.437,257.073H295.17l37.367-64.721L295.17,127.631H220.437L183.07,192.352Z" transform="translate(663.07 373.578)" fill="#bbbebe" opacity="0.25" style="mix-blend-mode: screen;isolation: isolate"/>
              <path id="Path_11825" data-name="Path 11825" d="M180.706,233.66h74.733l37.367-64.721-37.367-64.721H180.706l-37.367,64.721Z" transform="translate(581.924 325.76)" fill="#bbbebe" opacity="0.26"/>
              <path id="Path_11826" data-name="Path 11826" d="M180.706,280.486h74.733l37.367-64.721-37.367-64.721H180.706l-37.367,64.721Z" transform="translate(581.924 421.396)" fill="#bbbebe" opacity="0.1" style="mix-blend-mode: screen;isolation: isolate"/>
              <path id="Path_11827" data-name="Path 11827" d="M140.974,257.073h74.734l37.367-64.721-37.367-64.721H140.974l-37.367,64.721Z" transform="translate(500.778 373.578)" fill="#bbbebe" opacity="0.25" style="mix-blend-mode: screen;isolation: isolate"/>
              <path id="Path_11828" data-name="Path 11828" d="M61.512,257.073h74.733l37.367-64.721-37.367-64.721H61.512L24.145,192.352Z" transform="translate(338.486 373.578)" fill="#bbbebe" opacity="0.25" style="mix-blend-mode: screen;isolation: isolate"/>
              <path id="Path_11829" data-name="Path 11829" d="M21.781,233.66H96.514l37.367-64.721L96.514,104.218H21.781l-37.367,64.721Z" transform="translate(257.34 325.76)" fill="#bbbebe" opacity="0.26"/>
              <path id="Path_11830" data-name="Path 11830" d="M21.781,280.486H96.514l37.367-64.721L96.514,151.044H21.781l-37.367,64.721Z" transform="translate(257.34 421.396)" fill="#bbbebe" opacity="0.1" style="mix-blend-mode: screen;isolation: isolate"/>
              <path id="Path_11831" data-name="Path 11831" d="M-17.95,257.073H56.783L94.15,192.352,56.783,127.631H-17.95l-37.367,64.721Z" transform="translate(176.194 373.578)" fill="#bbbebe" opacity="0.39"/>
              <path id="Path_11832" data-name="Path 11832" d="M-57.681,233.66H17.052l37.367-64.721L17.052,104.218H-57.681l-37.367,64.721Z" transform="translate(95.048 325.76)" fill="#bbbebe" opacity="0.25" style="mix-blend-mode: screen;isolation: isolate"/>
              <path id="Path_11833" data-name="Path 11833" d="M299.5,209.963h74.734L411.6,145.242,374.237,80.521H299.5l-37.367,64.721Z" transform="translate(824.555 277.362)" fill="#bbbebe" opacity="0.25" style="mix-blend-mode: screen;isolation: isolate"/>
              <path id="Path_11834" data-name="Path 11834" d="M220.041,209.963h74.734l37.367-64.721L294.775,80.521H220.041l-37.366,64.721Z" transform="translate(662.263 277.362)" fill="#bbbebe" opacity="0.26"/>
              <path id="Path_11835" data-name="Path 11835" d="M140.579,209.963h74.734l37.367-64.721L215.312,80.521H140.579l-37.367,64.721Z" transform="translate(499.971 277.362)" fill="#bbbebe" opacity="0.26"/>
              <path id="Path_11836" data-name="Path 11836" d="M100.848,186.55h74.733l37.367-64.721L175.581,57.108H100.848L63.481,121.829Z" transform="translate(418.825 229.544)" fill="#bbbebe" opacity="0.25" style="mix-blend-mode: screen;isolation: isolate"/>
              <path id="Path_11837" data-name="Path 11837" d="M21.385,186.55H96.119l37.367-64.721L96.119,57.108H21.385l-37.367,64.721Z" transform="translate(256.533 229.544)" fill="#bbbebe" opacity="0.1" style="mix-blend-mode: screen;isolation: isolate"/>
              <path id="Path_11838" data-name="Path 11838" d="M-18.346,209.963H56.388l37.367-64.721L56.388,80.521H-18.346l-37.367,64.721Z" transform="translate(175.387 277.362)" fill="#bbbebe" opacity="0.25" style="mix-blend-mode: screen;isolation: isolate"/>
              <path id="Path_11839" data-name="Path 11839" d="M259.377,139.44H334.11l37.367-64.721L334.11,10H259.377L222.01,74.719Z" transform="translate(742.601 133.328)" fill="#bbbebe" opacity="0.39"/>
              <path id="Path_11840" data-name="Path 11840" d="M219.646,162.853h74.733l37.367-64.721L294.379,33.411H219.646L182.279,98.132Z" transform="translate(661.455 181.146)" fill="#bbbebe" opacity="0.25" style="mix-blend-mode: screen;isolation: isolate"/>
              <path id="Path_11841" data-name="Path 11841" d="M179.915,139.44h74.734l37.367-64.721L254.648,10H179.915L142.548,74.719Z" transform="translate(580.309 133.328)" fill="#bbbebe" opacity="0.1" style="mix-blend-mode: screen;isolation: isolate"/>
              <path id="Path_11842" data-name="Path 11842" d="M140.183,162.853h74.734l37.367-64.721L214.917,33.411H140.183L102.817,98.132Z" transform="translate(499.163 181.146)" fill="#bbbebe" opacity="0.39"/>
              <path id="Path_11843" data-name="Path 11843" d="M60.721,162.853h74.734l37.367-64.721L135.455,33.411H60.721L23.354,98.132Z" transform="translate(336.871 181.146)" fill="#bbbebe" opacity="0.26"/>
              <path id="Path_11844" data-name="Path 11844" d="M20.99,139.44H95.723L133.09,74.719,95.723,10H20.99L-16.377,74.719Z" transform="translate(255.725 133.328)" fill="#bbbebe" opacity="0.39"/>
              <path id="Path_11845" data-name="Path 11845" d="M139.788,115.743h74.733l37.367-64.721L214.521-13.7H139.788L102.421,51.022Z" transform="translate(498.355 84.93)" fill="#bbbebe" opacity="0.26"/>
              <path id="Path_11846" data-name="Path 11846" d="M100.057,92.33H174.79l37.367-64.721L174.79-37.112H100.057L62.69,27.609Z" transform="translate(417.209 37.112)" fill="#bbbebe" opacity="0.39" style="mix-blend-mode: multiply;isolation: isolate"/>
            </g>
          </g>
        </g>
      </g>
      <g id="Group_6135" data-name="Group 6135" transform="translate(444.191 620.004)" opacity="0.48">
        <path id="Path_11906" data-name="Path 11906" d="M297.044,286.21c0,13.1,1.9,23.728,4.247,23.728s4.247-10.624,4.247-23.728-1.9-23.73-4.247-23.73S297.044,273.1,297.044,286.21Z" transform="translate(-277.562 -262.479)" fill="url(#radial-gradient-2)" style="mix-blend-mode: screen;isolation: isolate"/>
        <ellipse id="Ellipse_1035" data-name="Ellipse 1035" cx="23.73" cy="4.247" rx="23.73" ry="4.247" transform="translate(0 19.482)" fill="url(#radial-gradient-3)" style="mix-blend-mode: screen;isolation: isolate"/>
        <path id="Path_11907" data-name="Path 11907" d="M293.309,280.76a15.612,15.612,0,1,0,15.61-15.613A15.61,15.61,0,0,0,293.309,280.76Z" transform="translate(-285.19 -257.03)" fill="url(#radial-gradient-3)" style="mix-blend-mode: screen;isolation: isolate"/>
      </g>
      <g id="Group_6136" data-name="Group 6136" transform="translate(1018.186 207.472)" opacity="0.48">
        <ellipse id="Ellipse_1036" data-name="Ellipse 1036" cx="4.247" cy="23.73" rx="4.247" ry="23.73" transform="translate(19.484)" fill="url(#radial-gradient-5)" style="mix-blend-mode: screen;isolation: isolate"/>
        <path id="Path_11908" data-name="Path 11908" d="M503.038,141.782c13.107,0,23.731-1.9,23.731-4.247s-10.624-4.247-23.731-4.247-23.731,1.9-23.731,4.247S489.931,141.782,503.038,141.782Z" transform="translate(-479.307 -113.804)" fill="url(#radial-gradient-6)" style="mix-blend-mode: screen;isolation: isolate"/>
        <path id="Path_11909" data-name="Path 11909" d="M481.976,145.165a15.61,15.61,0,1,0,15.61-15.613A15.61,15.61,0,0,0,481.976,145.165Z" transform="translate(-473.856 -121.434)" fill="url(#radial-gradient-3)" style="mix-blend-mode: screen;isolation: isolate"/>
      </g>
      <g id="Group_6137" data-name="Group 6137" transform="translate(351.829 447.081)" opacity="0.48">
        <path id="Path_11910" data-name="Path 11910" d="M269.524,239.889c0,18.917,2.744,34.251,6.13,34.251s6.13-15.334,6.13-34.251-2.744-34.248-6.13-34.248S269.524,220.975,269.524,239.889Z" transform="translate(-241.406 -205.641)" fill="url(#radial-gradient-2)" style="mix-blend-mode: screen;isolation: isolate"/>
        <path id="Path_11911" data-name="Path 11911" d="M294.53,227.142c18.917,0,34.251-2.744,34.251-6.13s-15.334-6.127-34.251-6.127-34.248,2.744-34.248,6.127S275.616,227.142,294.53,227.142Z" transform="translate(-260.282 -186.763)" fill="url(#radial-gradient-9)" style="mix-blend-mode: screen;isolation: isolate"/>
        <circle id="Ellipse_1037" data-name="Ellipse 1037" cx="22.533" cy="22.533" r="22.533" transform="translate(2.383 34.249) rotate(-45)" fill="url(#radial-gradient-3)" style="mix-blend-mode: screen;isolation: isolate"/>
      </g>
      <g id="Group_6138" data-name="Group 6138" transform="translate(1144.813 332.995)" opacity="0.48">
        <path id="Path_11912" data-name="Path 11912" d="M530.171,202.39c0,18.918,2.744,34.251,6.127,34.251s6.13-15.334,6.13-34.251-2.744-34.248-6.13-34.248S530.171,183.476,530.171,202.39Z" transform="translate(-502.05 -168.142)" fill="url(#radial-gradient-5)" style="mix-blend-mode: screen;isolation: isolate"/>
        <ellipse id="Ellipse_1038" data-name="Ellipse 1038" cx="34.25" cy="6.129" rx="34.25" ry="6.129" transform="translate(0 28.12)" fill="url(#radial-gradient-3)" style="mix-blend-mode: screen;isolation: isolate"/>
        <circle id="Ellipse_1039" data-name="Ellipse 1039" cx="22.533" cy="22.533" r="22.533" transform="translate(7.13 17.517) rotate(-13.326)" fill="url(#radial-gradient-3)" style="mix-blend-mode: screen;isolation: isolate"/>
      </g>
      <g id="Group_6139" data-name="Group 6139" transform="translate(797.343 138.974)" opacity="0.48">
        <path id="Path_11913" data-name="Path 11913" d="M415.961,138.617c0,18.918,2.744,34.251,6.13,34.251s6.127-15.334,6.127-34.251-2.744-34.248-6.127-34.248S415.961,119.7,415.961,138.617Z" transform="translate(-387.84 -104.369)" fill="url(#radial-gradient-5)" style="mix-blend-mode: screen;isolation: isolate"/>
        <path id="Path_11914" data-name="Path 11914" d="M440.969,125.87c18.914,0,34.248-2.744,34.248-6.13s-15.334-6.127-34.248-6.127-34.251,2.744-34.251,6.127S422.052,125.87,440.969,125.87Z" transform="translate(-406.718 -85.491)" fill="url(#radial-gradient-9)" style="mix-blend-mode: screen;isolation: isolate"/>
        <circle id="Ellipse_1040" data-name="Ellipse 1040" cx="22.533" cy="22.533" r="22.533" transform="matrix(0.973, -0.229, 0.229, 0.973, 7.156, 17.476)" fill="url(#radial-gradient-3)" style="mix-blend-mode: screen;isolation: isolate"/>
      </g>
      <g id="Group_6140" data-name="Group 6140" transform="translate(891.444 805.883)" opacity="0.48">
        <ellipse id="Ellipse_1041" data-name="Ellipse 1041" cx="4.247" cy="23.73" rx="4.247" ry="23.73" transform="translate(19.484 0)" fill="url(#radial-gradient-5)" style="mix-blend-mode: screen;isolation: isolate"/>
        <path id="Path_11915" data-name="Path 11915" d="M461.379,338.473c13.107,0,23.73-1.9,23.73-4.247s-10.624-4.247-23.73-4.247-23.731,1.9-23.731,4.247S448.272,338.473,461.379,338.473Z" transform="translate(-437.648 -310.497)" fill="url(#radial-gradient-18)" style="mix-blend-mode: screen;isolation: isolate"/>
        <path id="Path_11916" data-name="Path 11916" d="M440.317,341.854a15.612,15.612,0,1,0,15.61-15.61A15.612,15.612,0,0,0,440.317,341.854Z" transform="translate(-432.197 -318.126)" fill="url(#radial-gradient-3)" style="mix-blend-mode: screen;isolation: isolate"/>
      </g>
      <g id="Group_6141" data-name="Group 6141" transform="translate(1081.277 544.167)" opacity="0.48">
        <ellipse id="Ellipse_1042" data-name="Ellipse 1042" cx="4.247" cy="23.73" rx="4.247" ry="23.73" transform="translate(19.483 0)" fill="url(#radial-gradient-5)" style="mix-blend-mode: screen;isolation: isolate"/>
        <ellipse id="Ellipse_1043" data-name="Ellipse 1043" cx="23.73" cy="4.247" rx="23.73" ry="4.247" transform="translate(0 19.483)" fill="url(#radial-gradient-3)" style="mix-blend-mode: screen;isolation: isolate"/>
        <path id="Path_11917" data-name="Path 11917" d="M502.713,255.834a15.612,15.612,0,1,0,15.61-15.614A15.609,15.609,0,0,0,502.713,255.834Z" transform="translate(-494.594 -232.103)" fill="url(#radial-gradient-3)" style="mix-blend-mode: screen;isolation: isolate"/>
      </g>
      <g id="Group_6142" data-name="Group 6142" transform="translate(491.651 231.203)" opacity="0.48">
        <path id="Path_11918" data-name="Path 11918" d="M312.644,158.412c0,13.107,1.9,23.731,4.247,23.731s4.247-10.624,4.247-23.731-1.9-23.728-4.247-23.728S312.644,145.308,312.644,158.412Z" transform="translate(-293.161 -134.684)" fill="url(#radial-gradient-5)" style="mix-blend-mode: screen;isolation: isolate"/>
        <path id="Path_11919" data-name="Path 11919" d="M329.971,149.581c13.107,0,23.731-1.9,23.731-4.247s-10.624-4.247-23.731-4.247-23.731,1.9-23.731,4.247S316.864,149.581,329.971,149.581Z" transform="translate(-306.24 -121.607)" fill="url(#radial-gradient-18)" style="mix-blend-mode: screen;isolation: isolate"/>
        <path id="Path_11920" data-name="Path 11920" d="M308.908,152.962a15.612,15.612,0,1,0,15.614-15.61A15.615,15.615,0,0,0,308.908,152.962Z" transform="translate(-300.791 -129.235)" fill="url(#radial-gradient-3)" style="mix-blend-mode: screen;isolation: isolate"/>
      </g>
    </g>
  </g>
</svg>
